<?xml version="1.0" standalone="no"?>
<!DOCTYPE svg PUBLIC "-//W3C//DTD SVG 20010904//EN"
 "http://www.w3.org/TR/2001/REC-SVG-20010904/DTD/svg10.dtd">
<svg version="1.0" xmlns="http://www.w3.org/2000/svg"
 width="224.000000pt" height="112.000000pt" viewBox="0 0 224.000000 112.000000"
 preserveAspectRatio="xMidYMid meet">

<g transform="translate(0.000000,112.000000) scale(0.100000,-0.100000)"
fill="#000000" stroke="none">
<path d="M485 940 c-8 -13 -65 -181 -65 -192 0 -4 11 -8 24 -8 15 0 26 7 29
20 4 15 14 20 40 20 26 0 36 -5 40 -20 3 -13 14 -20 30 -20 l26 0 -36 105
c-31 94 -37 105 -58 105 -13 0 -27 -5 -30 -10z m44 -107 c1 -7 -8 -13 -19 -13
-17 0 -19 4 -14 28 10 43 18 49 25 22 4 -14 7 -31 8 -37z"/>
<path d="M707 944 c-4 -4 -7 -52 -7 -106 0 -97 0 -99 23 -96 21 3 22 7 22 103
0 82 -3 100 -15 103 -9 1 -19 0 -23 -4z"/>
<path d="M1010 930 c0 -13 7 -20 20 -20 13 0 20 7 20 20 0 13 -7 20 -20 20
-13 0 -20 -7 -20 -20z"/>
<path d="M1230 845 c0 -98 1 -105 20 -105 16 0 20 7 20 30 0 17 4 30 10 30 5
0 16 -13 25 -30 11 -22 23 -30 41 -30 29 0 29 -1 -22 75 -12 17 -11 22 13 47
l27 28 -24 0 c-13 0 -34 -10 -47 -22 l-23 -21 0 51 c0 45 -3 52 -20 52 -19 0
-20 -7 -20 -105z"/>
<path d="M1660 935 c0 -8 5 -15 10 -15 6 0 10 7 10 15 0 8 -4 15 -10 15 -5 0
-10 -7 -10 -15z"/>
<path d="M620 915 c0 -14 -4 -25 -10 -25 -5 0 -10 -7 -10 -15 0 -8 5 -15 10
-15 6 0 10 -22 10 -48 0 -53 12 -72 47 -72 16 0 23 6 23 20 0 11 -7 20 -15 20
-11 0 -15 11 -15 40 0 29 4 40 15 40 8 0 15 7 15 15 0 8 -7 15 -15 15 -9 0
-15 9 -15 25 0 18 -5 25 -20 25 -15 0 -20 -7 -20 -25z"/>
<path d="M930 915 c0 -14 -4 -25 -10 -25 -5 0 -10 -7 -10 -15 0 -8 5 -15 10
-15 6 0 10 -25 10 -55 0 -50 2 -55 26 -61 34 -9 56 12 32 30 -23 17 -25 86 -3
86 8 0 15 7 15 15 0 8 -7 15 -15 15 -9 0 -15 9 -15 25 0 18 -5 25 -20 25 -15
0 -20 -7 -20 -25z"/>
<path d="M190 872 c0 -21 24 -54 102 -140 l103 -112 922 0 923 0 0 35 0 35
-928 0 -928 0 -97 105 c-88 95 -97 103 -97 77z"/>
<path d="M1570 890 c-8 -5 -23 -7 -32 -4 -16 5 -18 -3 -18 -65 0 -38 5 -73 10
-76 6 -4 10 15 10 49 0 36 5 60 16 70 37 38 64 10 64 -67 0 -36 4 -56 10 -52
6 3 10 31 10 61 0 41 -5 59 -20 74 -23 23 -29 24 -50 10z"/>
<path d="M1743 890 c-42 -17 -57 -85 -27 -128 20 -28 67 -29 95 -1 25 25 17
39 -9 16 -34 -31 -82 -17 -82 23 0 5 24 10 53 12 49 3 52 5 49 28 -1 14 -12
33 -23 43 -24 19 -25 19 -56 7z m55 -37 c14 -23 14 -23 -32 -23 -49 0 -56 8
-30 35 21 20 43 16 62 -12z"/>
<path d="M780 870 c-46 -46 -11 -130 54 -130 29 0 66 24 66 43 0 11 -29 8 -49
-5 -15 -9 -23 -9 -37 3 -16 13 -12 14 37 19 50 5 54 7 51 29 -6 58 -80 83
-122 41z m78 -27 c2 -8 -6 -13 -22 -13 -25 0 -33 10 -19 24 10 10 36 3 41 -11z"/>
<path d="M1010 815 c0 -68 2 -75 20 -75 18 0 20 7 20 75 0 68 -2 75 -20 75
-18 0 -20 -7 -20 -75z"/>
<path d="M1092 874 c-29 -20 -31 -85 -2 -114 26 -26 81 -26 103 -2 10 10 17
22 17 25 0 11 -29 8 -50 -5 -16 -10 -23 -10 -37 5 -16 16 -15 17 35 17 50 0
52 1 52 28 0 55 -68 81 -118 46z m76 -31 c2 -9 -7 -13 -27 -13 -30 0 -39 9
-24 24 11 10 46 3 51 -11z"/>
<path d="M1390 836 c-3 -39 -1 -65 8 -77 15 -21 52 -25 70 -7 9 9 12 9 12 0 0
-7 5 -12 10 -12 6 0 10 32 10 75 0 43 -4 75 -10 75 -5 0 -10 -24 -10 -53 0
-58 -12 -77 -47 -77 -25 0 -31 15 -36 90 -2 43 -3 43 -7 -14z"/>
<path d="M1660 815 c0 -43 4 -75 10 -75 6 0 10 32 10 75 0 43 -4 75 -10 75 -6
0 -10 -32 -10 -75z"/>
<path d="M190 725 c0 -24 20 -50 103 -138 l102 -108 118 1 117 0 0 30 0 30
-121 0 -121 0 -62 68 c-34 37 -79 85 -99 107 l-36 40 -1 -30z"/>
<path d="M0 655 l0 -35 95 0 95 0 0 35 0 35 -95 0 -95 0 0 -35z"/>
<path d="M640 576 c0 -21 23 -53 102 -137 l101 -109 699 0 698 0 0 30 0 30
-698 0 -698 0 -37 38 c-20 21 -37 41 -37 45 0 4 331 7 735 7 l735 0 0 30 0 30
-767 0 -767 0 -33 32 -33 32 0 -28z"/>
<path d="M0 510 l0 -30 95 0 95 0 0 30 0 30 -95 0 -95 0 0 -30z"/>
<path d="M640 433 c0 -21 25 -55 102 -140 l102 -113 698 0 698 0 0 35 0 35
-704 0 -704 0 -38 43 c-20 23 -64 70 -96 105 -55 60 -58 61 -58 35z"/>
<path d="M0 360 l0 -30 315 0 315 0 0 30 0 30 -315 0 -315 0 0 -30z"/>
<path d="M0 215 l0 -35 315 0 315 0 0 35 0 35 -315 0 -315 0 0 -35z"/>
</g>
</svg>
