<?xml version="1.0" encoding="utf-8"?>
<!-- Generator: Adobe Illustrator 28.0.0, SVG Export Plug-In . SVG Version: 6.00 Build 0)  -->
<svg version="1.1" id="Laag_1" xmlns="http://www.w3.org/2000/svg" xmlns:xlink="http://www.w3.org/1999/xlink" x="0px" y="0px"
	 viewBox="0 0 85 56.7" style="enable-background:new 0 0 85 56.7;" xml:space="preserve">
<style type="text/css">
	.st0{fill:#FFFFFF;}
	.st1{fill:#EA7523;}
</style>
<rect x="0" y="0.1" class="st0" width="85" height="56.7"/>
<g>
	<rect x="0" y="25.6" class="st1" width="7.2" height="2.8"/>
	<rect x="0" y="31.1" class="st1" width="7.2" height="2.8"/>
	<rect x="0" y="36.7" class="st1" width="24.2" height="2.8"/>
	<rect x="0" y="42.2" class="st1" width="24.2" height="2.8"/>
	<polygon class="st1" points="7.2,22.8 14.8,31.1 24.2,31.1 24.2,33.9 14.8,33.9 7.2,25.6 	"/>
	<polygon class="st1" points="7.2,17.3 14.8,25.6 85.1,25.6 85.1,28.4 14.8,28.4 7.2,20 	"/>
	<polygon class="st1" points="24.2,28.4 26.8,31.1 85.1,31.1 85.1,33.9 29.3,33.9 31.9,36.7 85.1,36.7 85.1,39.4 31.9,39.4 
		24.2,31.1 	"/>
	<polygon class="st1" points="85.1,42.2 85.1,45 31.9,45 24.2,36.7 24.2,33.9 31.9,42.2 	"/>
	<g>
		<g>
			<path d="M18.1,22l-0.5,1.6h-1.9l2.6-7.7h2.2l2.6,7.7h-2L20.7,22H18.1z M19.4,17.6l-0.9,3h1.8L19.4,17.6z"/>
			<path d="M26.1,19.1h-1v2.2c0,0.9,0,1,0.4,1h0.6v1.2h-1c-0.7,0-1.1-0.1-1.3-0.4c-0.3-0.3-0.3-0.6-0.3-1.5v-2.5h-0.8v-1.2h0.8v-1.7
				h1.6v1.7h1L26.1,19.1L26.1,19.1z"/>
			<path d="M28.3,23.6h-1.6v-7.7h1.6V23.6z"/>
			<path d="M30.4,21.3c0.1,0.8,0.6,1.2,1.2,1.2c0.5,0,0.8-0.2,1-0.5h1.7c-0.3,1.1-1.3,1.8-2.6,1.8c-1,0-1.7-0.3-2.2-0.9
				c-0.5-0.5-0.7-1.3-0.7-2c0-1.8,1.1-3,2.9-3c1.2,0,2.1,0.6,2.5,1.7c0.2,0.5,0.2,1,0.3,1.7L30.4,21.3L30.4,21.3z M32.7,20.1
				c0-0.6-0.4-1-1.1-1c-0.6,0-1.1,0.4-1.2,1H32.7z"/>
			<path d="M37.8,19.1h-1v2.2c0,0.9,0,1,0.4,1h0.6v1.2h-1c-0.7,0-1.1-0.1-1.3-0.4c-0.3-0.3-0.3-0.6-0.3-1.5v-2.5h-0.8v-1.2h0.8v-1.7
				h1.6v1.7h1L37.8,19.1L37.8,19.1z"/>
			<path d="M40,17.2h-1.6v-1.3H40V17.2z M40,23.6h-1.6V18H40V23.6z"/>
			<path d="M42.1,21.3c0.1,0.8,0.6,1.2,1.2,1.2c0.5,0,0.8-0.2,1-0.5H46c-0.3,1.1-1.3,1.8-2.6,1.8c-1,0-1.7-0.3-2.2-0.9
				c-0.5-0.5-0.7-1.3-0.7-2c0-1.8,1.1-3,2.9-3c1.2,0,2.1,0.6,2.5,1.7c0.2,0.5,0.2,1,0.3,1.7L42.1,21.3L42.1,21.3z M44.3,20.1
				c0-0.6-0.4-1-1.1-1c-0.6,0-1.1,0.4-1.2,1H44.3z"/>
			<path d="M52.2,23.6h-2l-1.4-2.4l-0.5,0.5v1.9h-1.6v-7.7h1.6v4L50,18h2l-2.1,2.1L52.2,23.6z"/>
			<path d="M56.3,23.6v-0.8c-0.5,0.7-1,0.9-1.8,0.9c-0.6,0-1.1-0.2-1.4-0.6c-0.3-0.3-0.4-0.7-0.4-1.3V18h0.7v3.7
				c0,0.6,0.1,0.9,0.3,1.1c0.2,0.2,0.6,0.4,1,0.4c0.5,0,0.9-0.2,1.2-0.5c0.3-0.3,0.4-0.7,0.4-1.3v-3.3H57v5.6h-0.7V23.6z"/>
			<path d="M58.6,18v0.8c0.5-0.7,0.9-0.9,1.8-0.9c0.6,0,1.1,0.2,1.4,0.6c0.3,0.3,0.4,0.7,0.4,1.3v3.8h-0.7v-3.7
				c0-0.6-0.1-0.9-0.3-1.1c-0.2-0.2-0.6-0.4-1-0.4c-0.5,0-0.9,0.2-1.2,0.5c-0.3,0.3-0.4,0.7-0.4,1.3v3.3h-0.7v-5.6h0.7V18z"/>
			<path d="M63.8,16.8h-0.7v-0.9h0.7V16.8z M63.8,23.6h-0.7V18h0.7V23.6z"/>
			<path d="M65.2,20.9c0,1.4,0.7,2.2,1.8,2.2c0.8,0,1.4-0.4,1.6-1.3h0.7c-0.4,1.3-1.2,1.9-2.4,1.9c-1.6,0-2.5-1.1-2.5-2.9s1-3,2.5-3
				s2.4,1.1,2.4,2.8v0.2h-4.1V20.9z M68.7,20.3c-0.1-1.2-0.7-1.9-1.6-1.9c-1,0-1.6,0.7-1.8,1.9H68.7z"/>
		</g>
	</g>
</g>
</svg>
