<?xml version="1.0" encoding="utf-8"?>
<!-- Generator: Adobe Illustrator 28.0.0, SVG Export Plug-In . SVG Version: 6.00 Build 0)  -->
<svg version="1.1" id="Laag_1" xmlns="http://www.w3.org/2000/svg" xmlns:xlink="http://www.w3.org/1999/xlink" x="0px" y="0px"
	 viewBox="0 0 85 56.7" style="enable-background:new 0 0 85 56.7;" xml:space="preserve">
<style type="text/css">
	.st0{fill:#EA7523;}
	.st1{fill:#FFFFFF;}
</style>
<g>
	<rect class="st0" width="85" height="56.7"/>
	<g>
		<rect y="25.5" class="st1" width="7.2" height="2.8"/>
		<rect y="31" class="st1" width="7.2" height="2.8"/>
		<rect y="36.6" class="st1" width="24.2" height="2.8"/>
		<rect y="42.1" class="st1" width="24.2" height="2.8"/>
		<polygon class="st1" points="7.2,22.7 14.8,31 24.2,31 24.2,33.8 14.8,33.8 7.2,25.5 		"/>
		<polygon class="st1" points="7.2,17.2 14.8,25.5 85,25.5 85,28.3 14.8,28.3 7.2,19.9 		"/>
		<polygon class="st1" points="24.2,28.3 26.8,31 85,31 85,33.8 29.3,33.8 31.9,36.6 85,36.6 85,39.3 31.9,39.3 24.2,31 		"/>
		<polygon class="st1" points="85,42.1 85,44.9 31.9,44.9 24.2,36.6 24.2,33.8 31.9,42.1 		"/>
	</g>
	<g>
		<path d="M18.1,21.9l-0.5,1.6h-1.9l2.6-7.7h2.2l2.6,7.7h-2l-0.4-1.6H18.1z M19.4,17.5l-0.9,3h1.8L19.4,17.5z"/>
		<path d="M26.1,19h-1v2.2c0,0.9,0,1,0.4,1h0.6v1.2h-1c-0.7,0-1.1-0.1-1.3-0.4c-0.3-0.3-0.3-0.6-0.3-1.5V19h-0.8v-1.2h0.8v-1.7h1.6
			v1.7h1L26.1,19L26.1,19z"/>
		<path d="M28.3,23.5h-1.6v-7.7h1.6V23.5z"/>
		<path d="M30.4,21.2c0.1,0.8,0.6,1.2,1.2,1.2c0.5,0,0.8-0.2,1-0.5h1.7C34,23,33,23.7,31.7,23.7c-1,0-1.7-0.3-2.2-0.9
			c-0.5-0.5-0.7-1.3-0.7-2c0-1.8,1.1-3,2.9-3c1.2,0,2.1,0.6,2.5,1.7c0.2,0.5,0.2,1,0.3,1.7L30.4,21.2L30.4,21.2z M32.7,20
			c0-0.6-0.4-1-1.1-1c-0.6,0-1.1,0.4-1.2,1H32.7z"/>
		<path d="M37.8,19h-1v2.2c0,0.9,0,1,0.4,1h0.6v1.2h-1c-0.7,0-1.1-0.1-1.3-0.4c-0.3-0.3-0.3-0.6-0.3-1.5V19h-0.8v-1.2h0.8v-1.7h1.6
			v1.7h1L37.8,19L37.8,19z"/>
		<path d="M40,17.1h-1.6v-1.3H40V17.1z M40,23.5h-1.6v-5.6H40V23.5z"/>
		<path d="M42.1,21.2c0.1,0.8,0.6,1.2,1.2,1.2c0.5,0,0.8-0.2,1-0.5H46c-0.3,1.1-1.3,1.8-2.6,1.8c-1,0-1.7-0.3-2.2-0.9
			c-0.5-0.5-0.7-1.3-0.7-2c0-1.8,1.1-3,2.9-3c1.2,0,2.1,0.6,2.5,1.7c0.2,0.5,0.2,1,0.3,1.7L42.1,21.2L42.1,21.2z M44.3,20
			c0-0.6-0.4-1-1.1-1c-0.6,0-1.1,0.4-1.2,1H44.3z"/>
		<path d="M52.1,23.5h-2l-1.4-2.4l-0.5,0.5v1.9h-1.6v-7.7h1.6v4l1.7-1.9h2L49.8,20L52.1,23.5z"/>
		<path d="M56.2,23.5v-0.8c-0.5,0.7-1,0.9-1.8,0.9c-0.6,0-1.1-0.2-1.4-0.6c-0.3-0.3-0.4-0.7-0.4-1.3v-3.8h0.7v3.7
			c0,0.6,0.1,0.9,0.3,1.1c0.2,0.2,0.6,0.4,1,0.4c0.5,0,0.9-0.2,1.2-0.5c0.3-0.3,0.4-0.7,0.4-1.3V18h0.7v5.6h-0.7V23.5z"/>
		<path d="M58.5,17.9v0.8c0.5-0.7,0.9-0.9,1.8-0.9c0.6,0,1.1,0.2,1.4,0.6c0.3,0.3,0.4,0.7,0.4,1.3v3.8h-0.7v-3.7
			c0-0.6-0.1-0.9-0.3-1.1c-0.2-0.2-0.6-0.4-1-0.4c-0.5,0-0.9,0.2-1.2,0.5c-0.3,0.3-0.4,0.7-0.4,1.3v3.3h-0.7v-5.6h0.7V17.9z"/>
		<path d="M63.7,16.7H63v-0.9h0.7V16.7z M63.7,23.5H63v-5.6h0.7V23.5z"/>
		<path d="M65.1,20.8c0,1.4,0.7,2.2,1.8,2.2c0.8,0,1.4-0.4,1.6-1.3h0.7c-0.4,1.3-1.2,1.9-2.4,1.9c-1.6,0-2.5-1.1-2.5-2.9s1-3,2.5-3
			s2.4,1.1,2.4,2.8v0.2L65.1,20.8L65.1,20.8z M68.6,20.2c-0.1-1.2-0.7-1.9-1.6-1.9c-1,0-1.6,0.7-1.8,1.9H68.6z"/>
	</g>
</g>
</svg>
