<?xml version="1.0" standalone="no"?>
<!DOCTYPE svg PUBLIC "-//W3C//DTD SVG 20010904//EN"
 "http://www.w3.org/TR/2001/REC-SVG-20010904/DTD/svg10.dtd">
<svg version="1.0" xmlns="http://www.w3.org/2000/svg"
 width="240.000000pt" height="80.000000pt" viewBox="0 0 240.000000 80.000000"
 preserveAspectRatio="xMidYMid meet">

<g transform="translate(0.000000,80.000000) scale(0.100000,-0.100000)"
fill="#000000" stroke="none">
<path d="M1172 708 c3 -86 5 -93 24 -96 17 -2 26 8 46 53 22 49 26 53 32 33 3
-13 6 -38 6 -55 0 -26 4 -33 20 -33 16 0 28 17 54 74 48 104 51 116 31 116
-10 0 -27 -23 -44 -61 -25 -54 -29 -59 -34 -38 -4 13 -7 41 -7 62 0 59 -26 47
-58 -25 l-27 -63 -5 60 c-4 47 -9 61 -23 63 -16 3 -18 -5 -15 -90z"/>
<path d="M1450 787 c-55 -27 -76 -133 -33 -164 43 -32 112 -4 134 54 32 86
-25 148 -101 110z m58 -29 c26 -26 5 -103 -31 -114 -11 -3 -25 0 -34 9 -21 21
-9 82 20 102 26 18 30 18 45 3z"/>
<path d="M1610 796 c0 -8 -30 -151 -36 -168 -4 -13 0 -18 14 -18 21 0 32 18
32 51 0 31 18 22 34 -16 10 -24 21 -35 36 -35 19 0 20 1 5 36 -14 33 -13 37 6
64 26 34 18 67 -18 81 -25 9 -73 13 -73 5z m66 -47 c8 -14 -21 -44 -34 -35
-14 8 -3 46 14 46 7 0 16 -5 20 -11z"/>
<path d="M1755 723 c-9 -43 -19 -86 -22 -96 -4 -16 1 -18 48 -15 57 3 84 28
30 28 -36 0 -37 7 -17 92 8 31 11 59 8 62 -19 19 -32 -1 -47 -71z"/>
<path d="M1895 778 c-29 -133 -35 -160 -35 -164 0 -9 81 -3 105 8 32 15 55 56
55 100 0 42 -8 54 -43 67 -47 18 -76 14 -82 -11z m83 -59 c3 -30 -2 -41 -24
-58 -40 -31 -47 -27 -39 25 9 66 15 75 39 72 16 -2 22 -11 24 -39z"/>
<path d="M1603 539 c-19 -7 -43 -37 -43 -53 0 -3 14 -21 31 -40 36 -42 30 -60
-18 -53 -28 5 -34 3 -31 -11 5 -25 74 -29 99 -6 27 24 24 49 -12 85 -33 34
-30 46 16 51 17 2 29 8 27 13 -4 15 -45 23 -69 14z"/>
<path d="M2173 539 c-19 -7 -43 -37 -43 -53 0 -3 14 -21 31 -40 36 -42 30 -60
-18 -53 -28 5 -34 3 -31 -11 5 -25 74 -29 99 -6 27 24 24 49 -12 85 -33 34
-30 46 16 51 17 2 29 8 27 13 -4 15 -45 23 -69 14z"/>
<path d="M1190 533 c0 -5 -9 -45 -19 -90 -18 -78 -18 -83 -2 -83 13 0 22 16
33 63 l16 62 1 -62 c1 -56 3 -63 21 -63 14 0 28 17 50 60 17 33 32 60 34 60 2
0 -2 -27 -9 -60 -11 -55 -11 -60 5 -60 13 0 21 17 33 75 22 100 22 105 -8 105
-20 0 -31 -12 -59 -67 l-35 -68 -1 45 c-1 70 -9 90 -36 90 -13 0 -24 -3 -24
-7z"/>
<path d="M1407 450 c-43 -81 -46 -90 -28 -90 11 0 25 9 31 20 7 13 21 20 40
20 23 0 30 -4 30 -20 0 -14 7 -20 21 -20 19 0 20 4 13 83 -8 96 -8 97 -37 97
-17 0 -32 -19 -70 -90z m73 15 c0 -28 -4 -35 -20 -35 -24 0 -24 3 -5 40 20 39
25 38 25 -5z"/>
<path d="M1700 525 c0 -8 9 -15 20 -15 23 0 23 2 5 -75 -19 -76 -19 -75 3 -75
15 0 22 13 31 58 19 87 20 91 43 94 12 2 23 9 26 16 3 9 -14 12 -62 12 -52 0
-66 -3 -66 -15z"/>
<path d="M1837 458 c-9 -46 -17 -86 -17 -90 0 -5 22 -8 49 -8 34 0 51 4 55 15
4 12 -3 15 -30 15 -29 0 -35 3 -30 16 3 9 6 19 6 24 0 5 14 10 32 12 43 4 50
28 8 28 -45 0 -38 33 9 40 58 9 50 30 -11 30 l-54 0 -17 -82z"/>
<path d="M1981 478 c-6 -35 -14 -75 -18 -90 -4 -23 -2 -28 15 -28 15 0 21 9
26 35 4 19 10 35 14 35 5 0 14 -16 21 -35 8 -24 19 -35 32 -35 23 0 23 -1 5
42 -14 31 -13 35 5 46 21 14 26 61 7 80 -7 7 -31 12 -53 12 l-42 0 -12 -62z
m77 10 c-4 -29 -38 -38 -38 -10 0 22 8 32 27 32 9 0 13 -8 11 -22z"/>
<path d="M445 519 c-224 -25 -406 -106 -435 -193 -19 -58 4 -91 135 -202 64
-54 120 -98 124 -97 3 1 7 11 9 21 2 13 -25 41 -93 97 -112 91 -125 107 -125
156 0 100 166 180 435 209 60 6 112 13 114 16 6 6 -73 3 -164 -7z"/>
<path d="M465 493 c-83 -11 -204 -47 -258 -75 -90 -49 -119 -109 -78 -167 19
-26 161 -141 175 -141 3 0 6 8 6 19 0 11 -27 40 -67 72 -82 66 -95 95 -68 147
35 64 117 97 360 141 l50 9 -45 -1 c-25 0 -58 -2 -75 -4z"/>
<path d="M433 454 c-91 -19 -159 -52 -193 -91 -17 -18 -30 -38 -30 -43 0 -28
25 -64 71 -100 42 -33 54 -38 61 -27 5 10 -6 28 -37 60 -25 24 -45 51 -45 60
0 25 47 73 93 95 24 11 76 27 116 35 40 9 75 18 79 21 9 10 -49 5 -115 -10z"/>
<path d="M416 410 c-62 -24 -96 -56 -96 -90 0 -47 49 -93 63 -57 3 7 -1 21 -8
31 -26 34 6 77 74 102 25 10 50 21 56 26 17 15 -39 7 -89 -12z"/>
<path d="M1222 278 c-11 -14 -82 -155 -82 -163 0 -15 40 -2 45 15 9 28 61 28
68 0 3 -11 13 -20 22 -20 16 0 17 7 11 61 -3 34 -6 75 -6 90 0 24 -4 29 -24
29 -13 0 -28 -6 -34 -12z m28 -63 c0 -28 -4 -35 -20 -35 -24 0 -24 3 -5 40 20
39 25 38 25 -5z"/>
<path d="M1320 275 c0 -8 9 -15 20 -15 25 0 25 5 -5 -128 -4 -17 -1 -22 14
-22 16 0 22 14 36 75 15 68 19 75 41 75 15 0 24 6 24 15 0 12 -14 15 -65 15
-51 0 -65 -3 -65 -15z"/>
<path d="M1475 278 c-5 -13 -35 -155 -35 -164 0 -2 8 -4 18 -4 13 0 21 11 28
38 7 31 14 38 38 40 28 3 28 3 21 -37 -6 -36 -5 -41 13 -41 16 0 22 13 36 83
20 102 20 97 -4 97 -13 0 -20 -7 -20 -19 0 -36 -12 -51 -40 -51 -27 0 -28 2
-23 35 5 28 2 35 -11 35 -9 0 -19 -6 -21 -12z"/>
<path d="M1655 278 c-2 -7 -9 -38 -15 -68 -6 -30 -13 -65 -17 -78 -5 -22 -4
-23 47 -20 59 3 85 28 30 28 -36 0 -35 -12 -14 113 5 30 4 37 -10 37 -9 0 -18
-6 -21 -12z"/>
<path d="M1785 278 c-2 -7 -9 -38 -15 -68 -6 -30 -13 -65 -17 -78 -5 -22 -4
-23 47 -20 62 3 84 28 26 28 -32 0 -35 2 -27 23 6 15 18 23 40 25 42 4 42 32
0 32 -24 0 -30 3 -25 16 3 9 6 18 6 20 0 2 16 4 35 4 24 0 35 5 35 15 0 19
-98 22 -105 3z"/>
<path d="M1910 275 c0 -8 9 -15 20 -15 16 0 19 -5 15 -22 -30 -133 -29 -128
-6 -128 14 0 21 10 25 38 16 87 26 111 48 114 12 2 23 9 26 16 3 9 -14 12 -62
12 -52 0 -66 -3 -66 -15z"/>
<path d="M2047 208 c-21 -102 -21 -98 1 -98 15 0 21 13 31 63 6 34 14 74 18
90 4 22 2 27 -14 27 -16 0 -22 -14 -36 -82z"/>
<path d="M2157 269 c-33 -25 -51 -87 -37 -123 12 -32 50 -51 84 -42 39 10 33
36 -8 36 -38 0 -48 15 -40 60 9 42 37 64 73 57 28 -6 49 11 34 27 -14 14 -82
5 -106 -15z"/>
<path d="M2296 268 c-22 -32 -20 -44 15 -80 27 -29 29 -33 14 -45 -12 -8 -25
-9 -41 -3 -20 8 -24 6 -24 -9 0 -38 60 -42 95 -6 32 31 31 37 -6 79 -34 39
-31 59 9 54 19 -2 28 2 30 15 6 28 -72 24 -92 -5z"/>
</g>
</svg>
