<?xml version="1.0" encoding="utf-8"?>
<!-- Generator: Adobe Illustrator 23.0.1, SVG Export Plug-In . SVG Version: 6.00 Build 0)  -->
<svg version="1.1" id="Livello_1" xmlns="http://www.w3.org/2000/svg" xmlns:xlink="http://www.w3.org/1999/xlink" x="0px" y="0px"
	 width="300.003px" height="175.913px" viewBox="0 0 300.003 175.913" enable-background="new 0 0 300.003 175.913"
	 xml:space="preserve">
<g>
	<path fill="#AA272F" d="M238.672,60.432c-0.399-2.421-1.006-4.764-1.492-7.079c-0.255-1.15-0.51-2.295-0.756-3.431
		c-0.39-1.088-0.775-2.17-1.16-3.239c-0.756-2.132-1.501-4.22-2.233-6.266c-0.967-1.934-1.915-3.821-2.83-5.664
		c-1.704-3.758-4.081-6.882-6.054-9.942c-0.505-0.756-1.001-1.501-1.487-2.238c-0.563-0.683-1.112-1.347-1.655-2.007
		c-1.088-1.309-2.132-2.565-3.138-3.773c-1.91-2.502-4.1-4.427-5.938-6.27c-3.595-3.802-6.92-6.136-9.076-7.887
		C200.684,0.919,199.529,0,199.529,0s1.073,1.015,3.089,2.916c2.012,1.896,5.082,4.61,8.393,8.523
		c1.694,1.93,3.696,3.932,5.428,6.516c0.905,1.246,1.853,2.546,2.834,3.888c0.486,0.674,0.982,1.357,1.487,2.055
		c0.423,0.746,0.861,1.506,1.309,2.276c1.728,3.109,3.831,6.256,5.236,9.985c0.794,1.814,1.603,3.672,2.44,5.577
		c0.606,1.983,1.222,4.009,1.853,6.083c0.318,1.03,0.64,2.074,0.962,3.128c0.188,1.088,0.375,2.185,0.568,3.292
		c0.356,2.214,0.828,4.451,1.107,6.752c0.058,1.285,0.116,2.613,0.178,3.927h4.639C238.927,63.416,238.797,61.905,238.672,60.432"/>
	<path fill="#AA272F" d="M145.903,163.488c-10.943,3.258-22.117,4.894-32.93,6.116c-5.404,0.274-10.881,0.63-15.967,0.693
		c-2.666-0.058-5.303-0.111-7.907-0.168c-2.608-0.039-5.188-0.063-7.632-0.385c-9.875-0.823-19.307-2.223-27.82-4.264
		c-8.551-1.949-16.198-4.49-22.897-6.959c-3.301-1.381-6.391-2.666-9.244-3.859c-2.786-1.343-5.274-2.719-7.575-3.888
		c-4.649-2.247-7.931-4.644-10.322-6.039C1.256,143.272,0,142.487,0,142.487s1.179,0.89,3.397,2.546
		c2.276,1.569,5.332,4.35,9.88,6.867c2.233,1.328,4.663,2.878,7.396,4.418c2.815,1.396,5.852,2.897,9.105,4.509
		c6.617,2.955,14.249,6.044,22.902,8.388c8.604,2.493,18.142,4.389,28.474,5.534c2.589,0.409,5.149,0.515,7.748,0.65
		c2.603,0.144,5.231,0.289,7.892,0.433c2.863,0.207,5.481-0.043,8.277-0.067c2.757-0.096,5.549-0.12,8.359-0.265
		c11.179-1.073,22.815-2.382,34.196-5.76c5.784-1.338,11.352-3.556,17.026-5.52c2.815-1.035,5.515-2.396,8.287-3.585l0.818-0.371
		h-17.589C152.78,161.486,149.387,162.661,145.903,163.488"/>
	<path fill="#AA272F" d="M107.377,139.993c0.13,1.15,0.255,2.238,0.385,3.128c0.063,0.255,0.063,0.703,0.13,0.895
		c0.188,1.468,0.318,2.363,0.447,3.128c0.255,1.785-1.728,3.508-4.278,3.446l-0.193-0.063h-0.703
		c-2.488,0.063-4.466-1.213-4.528-2.998c0-0.385-0.063-1.15-0.13-1.853c-0.063-0.64-0.125-1.723-0.192-2.618
		c-0.063-0.765-0.125-1.915-0.188-2.68c-0.063-1.083-0.13-2.04-0.192-2.998H84.533l-1.405,2.935c-0.51,1.02-0.953,2.108-1.468,3.061
		c-0.765,1.593-1.405,3.003-1.785,3.956c-0.77,1.92-2.935,3.32-5.683,3.258c-0.255-0.063-0.38-0.063-0.573-0.063
		c-1.853,0-3.508-1.535-2.81-2.873c1.853-3.128,4.023-7.146,5.938-10.852l1.53-2.806c3.191-5.933,9.576-18.445,12.762-24.952
		c1.025-1.915,3.768-3.065,6.511-3.003c0.448,0.067,0.895,0.067,1.343,0.067c2.613,0,5.106,1.27,5.298,3.316
		c0.125,1.79,0.25,3.575,0.443,5.428c0,0.318,0.067,0.635,0.067,0.953c0.063,0.322,0.063,0.765,0.125,1.088
		c0,0.255,0.063,0.448,0.063,0.698L107.377,139.993z M86.766,132.529c3.831,0.063,5.423,0.063,6.766,0.063
		c1.53,0,2.425,0,3.893-0.063c-0.193-2.103-0.322-4.273-0.51-6.381c-0.193-2.17-0.448-4.278-0.64-6.381
		c-0.255-2.04-0.38-3.513-0.448-4.403v-0.067c-0.063,0.067-0.063,0.13-0.125,0.192c-0.385,0.64-0.707,1.275-1.088,1.978
		c-0.51,0.958-1.02,1.853-1.4,2.55c-0.322,0.577-0.578,1.088-0.703,1.41L86.766,132.529z"/>
	<path fill="#AA272F" d="M127.03,115.171c0.318,0,0.635-0.063,0.958-0.063c0.833,0,1.593,0,2.233-0.063
		c1.915-0.192,3.446,1.083,3.191,2.358c-0.38,1.405-2.233,2.295-4.341,2.295c-1.213-0.063-2.233-0.063-3.128-0.063
		c-0.063,0.318-0.125,0.51-0.188,0.895c-0.322,1.53-0.703,3.446-1.088,5.361c-0.318,1.723-0.703,3.638-1.02,5.361
		c-0.255,1.468-0.573,2.81-0.765,3.763c-0.703,3.32-1.213,6.193-1.213,8.046c0,2.358,1.02,3.316,2.425,3.316
		c0.385,0,0.832-0.063,1.338-0.192c1.723-0.255,3.388,0.828,3.195,1.915c-0.385,1.593-2.045,2.998-4.341,3.316
		c-0.448,0.067-1.213,0.067-1.66,0.067c-4.273,0-7.021-1.217-7.974-2.555c-0.962-1.4-1.473-2.551-1.473-3.826
		c0-1.213,0.255-2.618,0.577-4.403l4.018-21.188c-1.275-0.255-2.295-1.15-2.108-2.17c0.197-1.28,1.405-2.295,3.065-2.295
		c0.318-1.598,0.448-2.94,0.573-4.216c0.193-2.04,2.108-3.826,4.851-4.466c2.238-0.448,4.596,0.765,4.148,2.425
		c-0.64,2.108-1.02,3.638-1.468,6.381H127.03z"/>
	<path fill="#AA272F" d="M135.832,121.106c1.275-6.766,1.79-10.149,1.723-12.06c-0.063-1.468,0.635-3.128,2.936-3.388
		c0.64-0.063,1.343-0.125,1.978-0.255c2.295-0.318,4.721,0.962,4.341,2.685c-0.385,1.848-0.703,3.446-1.338,6.569
		c-0.322,1.79-0.707,3.638-1.025,5.491c-0.063,0.192-0.063,0.192,0,0.067c0.895-1.213,1.915-2.238,3.383-3.128
		c2.743-1.79,5.553-2.108,7.599-2.108c4.721,0,9.249,1.978,9.249,7.084c0,1.338-0.255,2.998-0.765,6.251l-2.488,14.235
		c-0.255,1.593-0.448,3.508-0.573,4.658c-0.13,1.915-2.3,3.383-4.981,3.383c-2.233,0-4.211-1.598-3.831-3.258
		c0.322-1.213,0.707-2.998,1.088-5.168c0.765-4.658,1.598-9.764,2.425-14.422c0.192-1.083,0.385-2.363,0.385-3.316
		c0-2.363-0.765-4.148-3.383-4.148c-2.175,0-4.533,1.208-6.448,3.253c-0.958,1.02-2.743,4.403-4.148,10.149
		c-0.38,1.655-1.853,9.317-2.425,13.335c-0.318,2.108-2.555,3.638-5.361,3.638c-2.17,0-3.893-1.598-3.383-3.191
		c0.322-1.213,0.958-4.148,1.79-8.619L135.832,121.106z"/>
	<path fill="#AA272F" d="M175.65,151.035c-7.146-0.063-7.849-4.403-7.656-7.656c0.063-1.213,0.255-2.68,0.448-3.768
		c0-0.063,0.063-0.125,0.063-0.188c0.125-0.703,0.192-1.343,0.192-1.598c0.063-0.385,0.125-0.703,0.188-0.958
		c0.067-0.255,0.13-0.573,0.13-0.765c0.063-0.38,0.193-0.765,0.255-1.275c0.255-1.405,0.703-4.148,2.108-12.382
		c1.145-6.636,1.785-11.169,1.723-13.21c-0.067-1.473,0.89-3.32,3.123-3.513c0.578-0.063,1.15-0.188,1.983-0.385
		c2.166-0.568,4.273,0.962,4.143,2.685c-0.318,1.593-0.698,3.508-1.145,6.189c-0.063,0.448-0.125,0.958-0.255,1.473
		c-0.193,0.953-0.448,2.04-0.64,3.186c-0.447,2.743-0.953,5.746-1.468,8.551c-0.51,2.873-0.958,5.746-1.468,8.551
		c-0.063,0.26-0.063,0.515-0.125,0.77c-0.063,0.635-0.192,1.53-0.318,2.04c0,0.125-0.067,0.38-0.067,0.51
		c-0.38,2.108-0.703,4.278-0.255,5.616c0,0,0.448,1.66,1.213,1.723c0.958,0,1.468-0.125,2.363-0.448
		c0.063,0,0.448-0.125,0.635-0.188c1.66-0.577,3.191,0.698,2.68,2.04c-0.573,1.468-2.421,2.488-4.596,2.806
		C177.946,150.973,176.733,151.035,175.65,151.035"/>
	<path fill="#AA272F" d="M200.727,147.209c2.3,0,4.211-0.64,5.746-1.275c1.593-0.707,3.508,0.25,3.128,1.655
		c-0.448,1.405-1.79,2.81-4.086,3.446c-1.598,0.322-3.576,0.64-6.256,0.64c-11.107-0.318-13.85-6.256-13.98-14.23
		c0-6.829,3.45-12.574,5.621-15.188c4.403-5.491,10.654-7.281,15.255-7.281c6.824,0,10.274,3.383,10.274,7.791
		c0,1.785-0.9,4.273-2.3,6.444c-1.53,2.295-4.341,4.148-6.574,5.231c-4.018,2.045-8.296,2.3-13.147,2.493
		c-0.063,0.25-0.125,1.083-0.125,2.295C194.284,142.295,195.174,147.271,200.727,147.209 M194.664,135.144
		c3.513-0.51,7.214-2.806,10.404-5.808c1.468-1.468,2.613-3.701,2.613-6.314c0-2.748-1.338-4.023-2.935-4.023
		c-0.953,0-3.128,0.448-5.871,3.638C196.897,125,195.174,129.846,194.664,135.144"/>
	<path fill="#AA272F" d="M230.653,115.171c0.318,0,0.635-0.063,0.958-0.063c0.833,0,1.593,0,2.233-0.063
		c1.915-0.192,3.446,1.083,3.191,2.358c-0.38,1.405-2.233,2.295-4.341,2.295c-1.213-0.063-2.233-0.063-3.128-0.063
		c-0.063,0.318-0.125,0.51-0.188,0.895c-0.322,1.53-0.703,3.446-1.088,5.361c-0.318,1.723-0.703,3.638-1.02,5.361
		c-0.255,1.468-0.573,2.81-0.765,3.763c-0.703,3.32-1.213,6.193-1.213,8.046c0,2.358,1.02,3.316,2.425,3.316
		c0.385,0,0.832-0.063,1.338-0.192c1.723-0.255,3.388,0.828,3.195,1.915c-0.385,1.593-2.045,2.998-4.341,3.316
		c-0.448,0.067-1.213,0.067-1.66,0.067c-4.273,0-7.021-1.217-7.974-2.555c-0.962-1.4-1.473-2.551-1.473-3.826
		c0-1.213,0.255-2.618,0.577-4.403l4.018-21.188c-1.275-0.255-2.295-1.15-2.108-2.17c0.197-1.28,1.405-2.295,3.065-2.295
		c0.318-1.598,0.448-2.94,0.573-4.216c0.193-2.04,2.108-3.826,4.851-4.466c2.238-0.448,4.596,0.765,4.148,2.425
		c-0.64,2.108-1.02,3.638-1.468,6.381H230.653z"/>
	<path fill="#AA272F" d="M245.136,135.082c-1.145,6.381-1.66,10.144-1.848,12.315c-0.13,1.853-2.43,3.128-4.856,3.128h-0.505
		c-2.045,0.067-3.643-1.718-3.45-3.316c0-0.067,0.067-0.192,0.067-0.322c0.318-1.338,0.765-3.123,1.213-5.741l1.083-6.256
		c1.53-8.421,2.108-12.57,2.04-14.87c-0.063-1.53,0.64-3.383,3.065-3.508c0.895-0.13,1.53-0.255,2.233-0.385
		c2.17-0.443,4.023,1.15,3.893,2.81c-0.063,0.255-0.125,0.698-0.125,1.02c-0.255,1.15-0.577,2.68-0.958,4.788L245.136,135.082z
		 M250.241,107.065c0,2.108-1.915,5.361-5.616,5.361c-2.17,0-4.403-1.02-4.403-3.383c0-1.978,1.79-5.231,5.746-5.231
		C248.201,103.812,250.241,104.895,250.241,107.065"/>
	<path fill="#AA272F" d="M276.405,115.617c1.978,0.448,2.618,2.295,2.108,3.576c-0.385,1.02-1.535,1.405-2.935,1.405
		c-0.832,0-1.53-0.135-2.045-0.385h0.067c-0.77-0.255-1.598-0.448-2.555-0.448c-7.786,0-12.382,8.551-12.382,17.233
		c0,3.123,0.51,6.954,3.383,8.739c1.66,1.088,3.258,1.473,4.788,1.473c1.405,0,2.618-0.26,3.826-0.707
		c1.853-0.505,3.195,0.77,2.748,2.045c-0.578,1.468-2.493,2.551-4.596,2.873c-0.958,0.13-2.17,0.193-3.32,0.193
		c-10.082,0-16.208-5.491-16.208-14.167c0-9.957,7.276-22.276,22.719-22.276C273.917,115.17,275.322,115.362,276.405,115.617"/>
	<path fill="#AA272F" d="M282.334,134.635c-1.978-1.15-5.746-3.446-5.746-7.531c0-3.446,2.363-6.636,5.491-9.124
		c3.253-2.43,8.234-2.873,10.847-2.873c1.915,0,3.258,0.125,4.403,0.443h-0.063c2.108,0.452,3.19,2.3,2.555,3.768
		c-0.448,1.025-1.723,1.53-3.128,1.53c-0.833,0-1.593-0.125-2.17-0.443h0.063c-0.958-0.448-2.04-0.77-3.123-0.77
		c-4.086,0-6.256,3.065-6.256,5.491c0,2.998,2.04,4.148,4.148,5.361l3.191,1.978c2.04,1.213,5.168,3.128,5.168,6.896
		c0,2.738-1.405,6.376-5.423,9.312c-3.768,2.748-8.489,2.94-11.424,2.94c-1.723,0-3.508-0.193-4.721-0.448
		c-2.233-0.577-3.768-2.238-3.383-3.638c0.828-2.108,3.383-2.873,5.361-1.915h-0.063c1.208,0.573,2.676,1.02,4.908,1.02
		c4.216,0,6.448-2.68,6.448-5.231c0-2.493-1.53-3.513-3.128-4.466L282.334,134.635z"/>
	<path fill="#575756" d="M94.434,83.723c-2.141,4.36-2.695,5.284-4.394,9.422c-0.409,1.068-0.741,1.882-0.996,2.512
		c-0.481,1.141-1.699,1.848-2.955,1.805c-0.149-0.034-0.26-0.034-0.409-0.034c-0.221,0-0.481,0.034-0.703,0.034
		c-1.107,0.077-1.997-0.919-1.997-2.026c0.038-0.818,0-1.848-0.072-3.065l-0.813-13.965c-0.183-2.401-0.293-3.917-0.553-5.101
		c-0.221-0.996,0.63-1.809,1.627-1.771h0.443h0.26c1.073-0.038,1.886,0.885,1.809,1.92c-0.039,0.741-0.072,1.732,0,3.176
		l0.481,10.342c0.111,2.512,0.144,2.955,0.404,7.204l6.28-13.811c1.068-2.478,1.516-3.585,2.108-5.322
		c0.404-1.179,1.699-1.737,2.955-1.771c1.068-0.038,1.882,0.736,1.848,1.809c-0.038,1.217-0.038,2.844,0.144,5.65l1.001,13.445
		l1.4-3.21c3.364-7.796,5.765-13.556,6.8-17.584c0.332-1.112,1.4-1.809,2.546-1.776h0.443c0.226,0,0.443,0,0.63-0.034
		c0.775,0,1.256,0.847,0.852,1.511c-0.558,0.847-1.112,1.997-1.886,3.696l-6.02,13.296c-0.741,1.665-1.112,2.512-1.776,4.211
		c-0.183,0.52-0.366,0.929-0.476,1.294c-0.443,1.217-1.699,1.925-2.993,1.882c-0.149,0-0.298-0.034-0.443-0.034
		c-0.221,0-0.448,0.034-0.664,0.034c-1.073,0.043-2.036-0.736-2.036-1.843c0-1.035-0.034-2.512-0.183-4.692l-0.443-6.28
		c-0.188-3.065-0.188-3.951-0.26-5.356C95.656,81.1,95.247,82.024,94.434,83.723"/>
	<path fill="#575756" d="M129.49,78.773c1.737,1.699,1.814,3.989,1.814,5.096c0,5.765-3.547,14.076-11.525,14.076
		c-1.925,0-3.807-0.553-5.212-1.848c-0.808-0.741-2.103-2.214-2.103-5.727c0-5.948,3.768-13.479,11.598-13.479
		C126.391,76.892,128.273,77.518,129.49,78.773 M126.314,80.251c-0.443-0.404-1.328-0.996-2.806-0.996
		c-5.914,0-7.353,8.643-7.353,11.559c0,3.513,1.848,4.807,3.956,4.807c6.535,0,7.425-10.125,7.425-11.896
		C127.537,82.874,127.498,81.358,126.314,80.251"/>
	<path fill="#575756" d="M135.476,83.761c0.371-1.992,0.481-3.248,0.443-4.1c-0.072-0.885,0.332-1.848,1.217-1.959
		c0.371-0.039,0.703-0.072,1.001-0.111c0.924-0.183,1.809,0.481,1.622,1.405c-0.144,0.698-0.775,3.287-1.068,4.836
		c0.847-1.367,2.18-4.471,4.1-5.76c0.775-0.515,1.439-0.813,1.992-1.001c0.89-0.255,1.516,0.703,1.222,1.554
		c-0.371,1.068-1.477,1.66-2.589,1.92c-1.732,0.404-3.84,1.959-4.87,5.65c-0.558,1.963-1.41,6.838-1.593,9.273
		c-0.111,1.073-0.996,1.925-2.069,1.886h-0.183c-0.924,0-1.737-0.813-1.477-1.737c0.183-0.626,0.371-1.294,0.438-1.848
		L135.476,83.761z"/>
	<path fill="#575756" d="M150.031,97.65c-3.508-0.038-3.84-2.512-3.73-4.398c0.072-1.29,0.404-2.844,0.404-3.21
		c0.371-2.036,0.116-0.481,1.593-8.98c0.736-4.244,1.03-6.424,0.996-7.68c-0.038-0.852,0.294-1.848,1.141-1.959
		c0.447-0.038,0.818-0.111,1.222-0.226c0.885-0.217,1.737,0.558,1.554,1.482c-0.298,1.367-0.592,3.027-1.222,6.314l-1.699,9.976
		c-0.26,1.882-0.813,4.066-0.515,4.913c0,0,0.332,1.294,1.477,1.367c0.924,0,1.256-0.149,1.992-0.366
		c0.553-0.188,0.924,0.476,0.703,1.068c-0.332,0.885-1.141,1.477-2.103,1.588C151.253,97.612,150.661,97.65,150.031,97.65"/>
	<path fill="#575756" d="M172.16,88.674c-0.371,2.218-0.885,4.913-0.885,6.906c-0.039,0.962-0.664,1.848-1.627,1.882
		c-1.068,0-1.992-0.847-1.848-1.915c0.072-0.592,0.447-3.032,0.664-4.1c-1.439,1.959-3.653,6.424-7.016,6.424
		c-2.955,0-5.5-2.069-5.5-6.28c0-1.035,0.294-6.242,3.73-10.38c2.064-2.507,5.135-4.211,8.344-4.211
		c1.145,0,1.886,0.221,2.772,0.481c0.371-1.959,0.553-3.104,0.481-3.917c-0.039-0.958,0.443-1.959,1.367-2.069
		c0.294-0.034,0.553-0.072,0.775-0.144c0.924-0.188,1.848,0.476,1.665,1.367c-0.221,0.958-0.448,2.252-0.924,4.803L172.16,88.674z
		 M159.638,90.373c0,2.589,1.179,4.509,3.248,4.509c1.333,0,3.215-0.852,4.548-3.474c1.068-2.146,1.511-4.36,2.95-11.636
		c-0.881-0.26-1.66-0.481-2.729-0.481C161.193,79.29,159.638,88.049,159.638,90.373"/>
	<path fill="#575756" d="M188.083,78.736c0.476-2.623,0.698-4.211,0.813-5.207c0.111-1.073,0.775-2.069,1.843-2.031h0.63
		c0.924,0,2.103-0.038,3.215-0.077c1.073-0.038,2.064-0.072,2.623-0.072c3.951,0,7.199,1.29,7.199,5.832
		c0,1.776-0.659,10.087-11.819,10.087c-1.068,0-1.699-0.034-2.397-0.144l-1.222,6.944c-0.072,0.515-0.149,0.958-0.188,1.328
		c-0.144,1.145-1.03,2.031-2.175,2.031h-0.183h-0.443c-0.967,0-1.631-0.958-1.333-1.882c0.553-1.737,0.996-3.807,1.405-5.765
		L188.083,78.736z M190.595,84.535c2.584,0.077,4.687,0,6.242-0.736c2.993-1.482,3.547-4.952,3.547-6.391
		c0-3.73-3.398-3.73-5.284-3.73c-0.481,0-1.107,0.034-2.324,0.072c-0.741,3.215-0.78,3.58-1.112,5.024L190.595,84.535z"/>
	<path fill="#575756" d="M221.402,77.481c0.885-0.298,1.627,0.664,1.405,1.55c-0.294,1.218-0.703,3.104-1.328,6.54l-0.669,3.657
		c-0.626,3.547-0.808,5.505-0.808,6.684c0,0.89-0.852,1.516-1.742,1.55c-0.919,0.043-1.699-0.698-1.622-1.588
		c0.149-1.511,0.664-4.244,0.664-4.687c-1.699,2.252-4.1,6.684-7.498,6.684c-2.7,0-5.395-1.959-5.395-6.169
		c0-1.776,0.626-8.643,6.136-12.709c0.881-0.664,2.988-2.064,6.054-2.064c1.66,0,2.772,0.404,3.956,0.847L221.402,77.481z
		 M219.111,79.844c-0.703-0.221-1.732-0.592-3.138-0.592c-6.208,0-7.868,7.979-7.868,11.083c0,2.551,0.924,4.437,3.32,4.437
		c1.371,0,2.998-0.63,4.288-2.512c1.073-1.554,1.776-3.696,2.435-7.281L219.111,79.844z"/>
	<path fill="#575756" d="M226.869,83.761c0.371-1.992,0.481-3.248,0.443-4.1c-0.072-0.885,0.337-1.848,1.217-1.959
		c0.375-0.039,0.707-0.072,1.001-0.111c0.924-0.183,1.809,0.481,1.627,1.405c-0.149,0.698-0.775,3.287-1.073,4.836
		c0.852-1.367,2.18-4.471,4.1-5.76c0.775-0.515,1.444-0.813,1.997-1.001c0.885-0.255,1.511,0.703,1.217,1.554
		c-0.371,1.068-1.477,1.66-2.584,1.92c-1.737,0.404-3.845,1.959-4.875,5.65c-0.558,1.963-1.41,6.838-1.593,9.273
		c-0.111,1.073-0.996,1.925-2.064,1.886h-0.188c-0.924,0-1.737-0.813-1.477-1.737c0.188-0.626,0.371-1.294,0.443-1.848
		L226.869,83.761z"/>
	<path fill="#575756" d="M253.727,77.481c0.885-0.298,1.627,0.664,1.4,1.55c-0.294,1.218-0.698,3.104-1.328,6.54l-0.664,3.657
		c-0.63,3.547-0.813,5.505-0.813,6.684c0,0.89-0.847,1.516-1.737,1.55c-0.924,0.043-1.699-0.698-1.622-1.588
		c0.144-1.511,0.659-4.244,0.659-4.687c-1.694,2.252-4.095,6.684-7.493,6.684c-2.7,0-5.395-1.959-5.395-6.169
		c0-1.776,0.626-8.643,6.131-12.709c0.885-0.664,2.988-2.064,6.059-2.064c1.66,0,2.772,0.404,3.951,0.847L253.727,77.481z
		 M251.437,79.844c-0.703-0.221-1.737-0.592-3.142-0.592c-6.203,0-7.868,7.979-7.868,11.083c0,2.551,0.924,4.437,3.325,4.437
		c1.367,0,2.993-0.63,4.288-2.512c1.068-1.554,1.771-3.696,2.435-7.281L251.437,79.844z"/>
</g>
</svg>
